 <svg version="1.0" xmlns="http://www.w3.org/2000/svg" width="300.000000pt" height="141.000000pt" viewBox="0 0 300.000000 141.000000" preserveAspectRatio="xMidYMid meet">
 	<g transform="translate(0.000000,141.000000) scale(0.050000,-0.050000)" fill="#000000" stroke="none">
 		<path d="M518 2750 c-7 -11 -14 -105 -16 -210 -3 -140 -11 -196 -33 -212 -22 -17 -29 -71 -29 -225 0 -167 -5 -203 -30 -203 -26 0 -30 -56 -30 -388 0 -326 -5 -390 -30 -399 -26 -10 -30 -85 -30 -502 l0 -491 -150 0 c-87 0 -150 -8 -150 -20 0 -12 70 -20 170 -20 l170 0 0 500 c0 431 4 500 30 500 26 0 30 58 30 400 0 253 7 400 20 400 12 0 20 80 20 200 0 194 1 200 48 211 113 29 121 16 132 -211 9 -199 12 -210 55 -216 45 -7 45 -8 45 -395 0 -332 4 -389 30 -389 20 0 30 -20 30 -61 0 -36 -8 -56 -20 -49 -11 7 -20 -2 -20 -19 0 -18 -22 -42 -48 -54 -54 -24 -72 -87 -72 -248 0 -59 -9 -112 -20 -119 -11 -7 -20 -107 -20 -231 l0 -219 120 0 120 0 2 385 3 385 26 -200 c15 -110 27 -283 28 -385 l1 -185 80 0 80 0 5 495 c6 622 8 782 12 845 3 49 7 50 153 50 l150 0 2 -170 c6 -450 17 -818 28 -895 l12 -85 -141 0 -141 0 0 -120 0 -120 150 0 150 0 0 100 0 100 70 0 70 0 0 -100 c0 -93 3 -100 50 -100 48 0 50 5 50 120 0 93 -7 120 -30 120 -18 0 -30 19 -30 48 0 26 14 53 30 59 18 7 30 37 30 72 0 34 9 61 20 61 11 0 20 27 20 60 0 40 10 60 30 60 25 0 30 50 30 330 0 207 7 330 20 330 11 0 20 -10 20 -23 0 -12 23 -43 50 -69 l50 -46 0 -561 0 -561 79 0 c99 0 92 -39 120 700 12 314 27 667 34 785 l12 215 95 0 95 0 12 -225 c7 -124 17 -378 23 -565 7 -187 16 -370 22 -407 l11 -67 -127 7 -126 7 -6 -225 -5 -225 153 0 153 0 -8 200 -8 200 61 0 c52 0 65 10 81 65 26 88 94 91 109 5 10 -58 15 -60 125 -66 l115 -6 0 -199 0 -199 101 0 100 0 -5 225 -6 225 -88 -7 -88 -6 13 64 c7 35 13 103 13 152 l0 87 220 0 220 0 0 -231 c0 -231 0 -232 45 -217 207 68 502 -96 416 -231 -15 -24 -40 -17 -148 38 -116 58 -138 63 -195 43 -137 -47 -207 -13 -158 78 29 54 15 70 -36 42 -177 -95 -67 -307 123 -234 105 40 149 40 240 2 39 -16 113 -30 162 -30 l91 0 0 520 0 520 120 0 120 0 0 -125 0 -125 48 59 47 59 14 -64 c16 -70 64 -87 75 -25 6 36 9 35 62 -10 l56 -49 -45 -95 c-37 -77 -48 -143 -58 -345 l-11 -250 -4 244 -4 245 -119 125 -120 126 0 -405 -1 -405 210 0 210 0 0 320 c0 271 5 320 30 320 26 0 30 79 30 590 l0 590 60 0 c33 0 60 9 60 20 0 11 27 20 60 20 l60 0 0 -382 c0 -365 2 -382 40 -392 38 -10 40 -27 40 -370 0 -343 2 -360 40 -370 36 -10 40 -27 40 -178 l0 -168 60 0 60 0 0 660 0 659 49 12 c110 28 115 10 118 -418 2 -303 -3 -393 -22 -393 -19 0 -25 -65 -25 -260 0 -247 2 -260 40 -260 38 0 40 13 40 240 l0 240 60 0 60 0 0 -240 0 -240 80 0 80 0 0 260 0 260 -60 0 -60 0 0 588 c0 665 -2 652 94 652 130 0 126 31 126 -909 l0 -851 131 0 c83 0 127 7 119 20 -7 11 -57 20 -111 20 l-99 0 0 847 c0 959 8 913 -158 913 -146 0 -142 17 -142 -669 l0 -611 -60 0 -60 0 0 327 c0 400 -20 753 -43 753 -9 0 -17 -49 -17 -110 0 -108 -1 -110 -59 -110 -58 0 -58 2 -51 94 4 51 1 103 -6 115 -28 43 -48 -276 -57 -904 -5 -399 -15 -645 -28 -645 -11 0 -19 73 -19 170 0 157 -3 170 -40 170 -39 0 -40 13 -40 370 0 357 -1 370 -40 370 -39 0 -40 13 -40 390 0 333 -4 390 -30 390 -24 0 -30 28 -30 130 0 73 -9 130 -20 130 -11 0 -20 -57 -20 -130 0 -125 -2 -130 -50 -130 -27 0 -50 -8 -50 -19 0 -10 -25 -21 -55 -25 l-55 -6 2 -584 c1 -549 -1 -584 -35 -593 -34 -8 -37 -36 -37 -321 0 -176 -8 -312 -18 -312 -10 0 -31 -5 -45 -10 -50 -19 -17 517 39 639 l45 99 -95 96 c-105 107 -146 118 -193 51 -30 -43 -31 -41 -32 61 l-1 106 -145 -6 -145 -6 -5 -449 c-5 -411 -8 -445 -37 -405 -54 77 -173 124 -317 124 l-131 0 0 220 0 220 -250 0 -250 0 0 -170 0 -170 -100 0 c-94 0 -100 3 -100 50 0 34 -16 58 -47 72 -66 30 -133 -7 -133 -73 0 -41 -10 -49 -57 -49 l-57 0 -13 385 c-26 753 -37 895 -66 895 -22 0 -27 65 -27 320 0 200 -7 320 -20 320 -12 0 -20 -120 -20 -320 0 -307 -2 -320 -40 -320 -38 0 -40 13 -40 270 0 167 -8 270 -20 270 -12 0 -20 -103 -20 -270 0 -227 -5 -270 -30 -270 -19 0 -30 -20 -30 -55 -1 -30 -14 -370 -30 -755 -16 -385 -29 -738 -30 -785 0 -77 -5 -85 -50 -85 l-50 0 0 570 c0 493 -4 570 -30 570 -16 0 -30 14 -30 30 0 17 -13 30 -30 30 -16 0 -30 14 -30 31 0 22 -15 30 -45 25 -44 -6 -45 -11 -51 -326 -4 -256 -11 -322 -35 -335 -16 -10 -29 -39 -29 -66 0 -27 -9 -49 -20 -49 -11 0 -20 -31 -20 -70 0 -49 -9 -70 -30 -70 -21 0 -30 -21 -30 -70 0 -67 -3 -70 -70 -70 l-70 0 -1 175 c-5 503 -23 972 -40 1017 -10 28 -19 73 -19 99 0 27 -9 49 -20 49 -11 0 -20 -36 -20 -80 l0 -80 -109 0 -109 0 -6 70 c-5 65 -44 102 -46 45 -1 -14 -8 -70 -16 -125 -17 -120 -33 -620 -34 -1055 0 -302 -2 -315 -40 -315 -37 0 -40 13 -40 199 0 109 -8 203 -17 209 -10 6 -22 85 -27 176 -6 98 -19 167 -33 172 -14 4 -23 52 -23 116 0 79 -8 112 -30 121 -25 9 -30 73 -30 399 l0 388 -50 0 c-50 0 -50 0 -50 199 0 179 -4 202 -40 221 -36 19 -40 42 -40 214 0 158 -23 254 -31 130 -17 -261 -16 -259 -28 -74 -6 99 -16 171 -23 160z m282 -2251 l0 -379 -80 0 -80 0 0 190 c0 105 8 190 17 190 10 0 22 77 27 170 7 138 16 176 47 198 64 47 69 23 69 -369z m3557 -127 c4 -153 15 -248 30 -259 13 -10 2 -12 -27 -5 -27 6 -79 12 -115 12 l-65 0 0 340 0 339 85 -92 85 -92 7 -243z m963 -32 c0 -133 -8 -220 -20 -220 -12 0 -20 87 -20 220 0 133 8 220 20 220 12 0 20 -87 20 -220z m260 0 c0 -207 -2 -220 -40 -220 -38 0 -40 13 -40 220 0 207 2 220 40 220 38 0 40 -13 40 -220z m-3160 -42 l0 -178 -110 0 -110 0 0 185 0 185 110 -7 110 -7 0 -178z m680 12 l0 -190 -65 0 -65 0 -3 179 -3 179 63 8 c35 4 65 9 68 11 3 2 5 -82 5 -187z m-1684 -105 l-6 -75 -115 -6 -115 -6 0 81 0 81 121 0 121 0 -6 -75z m244 -5 c0 -44 -9 -80 -20 -80 -11 0 -20 36 -20 80 0 44 9 80 20 80 11 0 20 -36 20 -80z m1670 61 c-23 -38 70 -106 127 -93 141 33 194 34 233 4 37 -29 35 -29 -25 -7 -53 19 -83 17 -171 -13 -130 -44 -182 -37 -191 25 -7 49 8 103 28 103 6 0 6 -9 -1 -19z" />
 	</g>
 </svg>